<svg width="70" height="70" viewBox="0 0 70 70" fill="none" xmlns="http://www.w3.org/2000/svg">
<g id="heart (1) 1">
<g id="Group">
<path id="Vector" fill-rule="evenodd" clip-rule="evenodd" d="M58.3333 16.7612C58.8879 16.8131 59.4031 17.0701 59.7782 17.4818C60.1533 17.8936 60.3611 18.4306 60.3611 18.9876C60.3611 19.5446 60.1533 20.0815 59.7782 20.4933C59.4031 20.9051 58.8879 21.1621 58.3333 21.214C58.0235 21.243 57.711 21.2069 57.4158 21.1082C57.1207 21.0095 56.8494 20.8503 56.6193 20.6407C56.3892 20.4312 56.2054 20.1759 56.0796 19.8912C55.9539 19.6066 55.8889 19.2988 55.8889 18.9876C55.8889 18.6764 55.9539 18.3686 56.0796 18.0839C56.2054 17.7992 56.3892 17.544 56.6193 17.3344C56.8494 17.1248 57.1207 16.9656 57.4158 16.8669C57.711 16.7682 58.0235 16.7322 58.3333 16.7612Z" fill="black"/>
<path id="Vector_2" fill-rule="evenodd" clip-rule="evenodd" d="M10.0528 53.6277C9.6105 53.6277 9.17817 53.4966 8.81045 53.2509C8.44272 53.0052 8.15611 52.6559 7.98687 52.2474C7.81762 51.8388 7.77334 51.3891 7.85962 50.9554C7.9459 50.5216 8.15887 50.1232 8.47159 49.8105C8.78432 49.4977 9.18276 49.2848 9.61652 49.1985C10.0503 49.1122 10.4999 49.1565 10.9085 49.3257C11.3171 49.495 11.6663 49.7816 11.912 50.1493C12.1577 50.517 12.2889 50.9494 12.2889 51.3916C12.2889 51.9847 12.0533 52.5534 11.6339 52.9728C11.2146 53.3922 10.6458 53.6277 10.0528 53.6277Z" fill="black"/>
<path id="Vector_3" fill-rule="evenodd" clip-rule="evenodd" d="M45.6751 23.3334C43.3622 21.1769 40.4395 19.7879 37.3069 19.3563C34.1744 18.9247 30.9849 19.4716 28.1751 20.9222C22.3418 24.0528 18.9584 31.7528 19.7168 41.1639C16.4143 39.5627 13.4298 37.3754 10.9084 34.7084C4.31676 27.6889 2.13898 19.4445 5.34731 14.2917C8.55565 9.13891 17.1501 6.74724 23.664 13.7667C25.7834 4.4528 34.3779 2.10002 39.764 5.07502C44.7223 7.7778 47.0168 14.9139 45.6751 23.3334Z" fill="black"/>
<path id="Vector_4" fill-rule="evenodd" clip-rule="evenodd" d="M59.1695 54.4445C54.4445 59.7139 45.1111 63.7778 37.5667 66.1112C32.8611 60.9973 27.5528 54.0751 25.4528 47.7362C22.4195 39.5889 23.9556 27.6889 30.2167 24.8112C32.633 23.593 35.4157 23.3164 38.0245 24.0351C40.6333 24.7538 42.8818 26.4164 44.3334 28.7001C45.2831 30.1617 45.9432 31.7922 46.2778 33.5028C46.5889 33.1723 46.9389 32.8806 47.1917 32.5889C53.55 26.7556 61.5417 29.0306 64.6917 34.0473C67.8417 39.0639 65.6639 47.4056 59.1695 54.4445Z" fill="black"/>
<path id="Vector_5" fill-rule="evenodd" clip-rule="evenodd" d="M55.1251 5.98887C55.1241 5.80896 55.1774 5.63293 55.278 5.48377C55.3786 5.3346 55.5218 5.21925 55.689 5.15276C55.8555 5.07797 56.0415 5.05839 56.22 5.09687C56.3984 5.13535 56.5598 5.22988 56.6807 5.36665L57.5557 6.33887C57.6425 6.43228 57.7479 6.50648 57.8651 6.55671C57.9823 6.60695 58.1087 6.63209 58.2362 6.63054H59.539C59.7216 6.61994 59.9029 6.66681 60.0575 6.76457C60.212 6.86233 60.3321 7.00606 60.4007 7.17556C60.4694 7.34507 60.4832 7.53183 60.4402 7.70959C60.3973 7.88736 60.2997 8.0472 60.1612 8.16665L59.2085 9.04165C59.112 9.126 59.0357 9.23095 58.9852 9.34874C58.9347 9.46653 58.9113 9.59416 58.9168 9.7222V11.025C58.9209 11.2071 58.8692 11.3861 58.7688 11.5381C58.6683 11.6901 58.5239 11.8078 58.3547 11.8755C58.1856 11.9431 57.9998 11.9575 57.8223 11.9167C57.6447 11.8759 57.4839 11.7819 57.3612 11.6472L56.4862 10.6944C56.4019 10.5979 56.2969 10.5216 56.1791 10.4712C56.0613 10.4207 55.9337 10.3973 55.8057 10.4028H54.5029C54.3203 10.405 54.1412 10.3525 53.9887 10.252C53.8362 10.1515 53.7173 10.0076 53.6473 9.83887C53.5778 9.66991 53.563 9.48342 53.6048 9.30558C53.6466 9.12773 53.7431 8.96745 53.8807 8.8472L54.8335 7.9722C54.9299 7.88785 55.0062 7.78291 55.0567 7.66511C55.1072 7.54732 55.1306 7.41969 55.1251 7.29165C55.1251 6.98054 55.1251 6.49443 55.1251 5.98887Z" fill="black"/>
<path id="Vector_6" fill-rule="evenodd" clip-rule="evenodd" d="M18.764 61.0944C18.6996 61.264 18.5851 61.41 18.4358 61.513C18.2865 61.616 18.1093 61.6711 17.9279 61.6711C17.7465 61.6711 17.5694 61.616 17.4201 61.513C17.2707 61.41 17.1563 61.264 17.0918 61.0944L16.6446 59.8694C16.5442 59.633 16.356 59.4448 16.1196 59.3444L14.8946 58.8972C14.725 58.8327 14.579 58.7183 14.476 58.5689C14.373 58.4196 14.3179 58.2425 14.3179 58.0611C14.3179 57.8797 14.373 57.7025 14.476 57.5532C14.579 57.4039 14.725 57.2894 14.8946 57.225L16.1196 56.7777C16.2402 56.7341 16.3498 56.6644 16.4405 56.5737C16.5313 56.483 16.6009 56.3734 16.6446 56.2527C16.7613 55.9611 16.9168 55.5138 17.0918 55.0472C17.1563 54.8776 17.2707 54.7316 17.4201 54.6286C17.5694 54.5256 17.7465 54.4705 17.9279 54.4705C18.1093 54.4705 18.2865 54.5256 18.4358 54.6286C18.5851 54.7316 18.6996 54.8776 18.764 55.0472C18.939 55.5138 19.114 55.9611 19.2113 56.2527C19.2549 56.3734 19.3246 56.483 19.4153 56.5737C19.506 56.6644 19.6156 56.7341 19.7363 56.7777L20.9613 57.225C21.1308 57.2894 21.2768 57.4039 21.3798 57.5532C21.4828 57.7025 21.538 57.8797 21.538 58.0611C21.538 58.2425 21.4828 58.4196 21.3798 58.5689C21.2768 58.7183 21.1308 58.8327 20.9613 58.8972L19.7363 59.3444C19.4999 59.4448 19.3117 59.633 19.2113 59.8694C19.114 60.1805 18.939 60.6277 18.764 61.0944Z" fill="black"/>
</g>
</g>
</svg>
